<svg width="107" height="21" viewBox="0 0 107 21" fill="none" xmlns="http://www.w3.org/2000/svg">
<path d="M8.384 18.216C6.752 18.216 5.32 17.864 4.088 17.16C2.872 16.456 1.936 15.448 1.28 14.136C0.624 12.824 0.296 11.288 0.296 9.528C0.296 7.768 0.624 6.24 1.28 4.944C1.936 3.632 2.872 2.624 4.088 1.92C5.32 1.216 6.752 0.863999 8.384 0.863999C9.44 0.863999 10.432 1.024 11.36 1.344C12.288 1.648 13.112 2.096 13.832 2.688C14.04 2.848 14.184 3.016 14.264 3.192C14.344 3.368 14.384 3.584 14.384 3.84C14.384 4.192 14.288 4.488 14.096 4.728C13.904 4.968 13.672 5.088 13.4 5.088C13.08 5.088 12.752 4.976 12.416 4.752C11.728 4.24 11.088 3.888 10.496 3.696C9.904 3.488 9.248 3.384 8.528 3.384C6.864 3.384 5.6 3.904 4.736 4.944C3.888 5.984 3.464 7.512 3.464 9.528C3.464 11.56 3.888 13.096 4.736 14.136C5.6 15.176 6.864 15.696 8.528 15.696C9.216 15.696 9.848 15.592 10.424 15.384C11.016 15.176 11.68 14.824 12.416 14.328C12.576 14.232 12.736 14.152 12.896 14.088C13.056 14.024 13.224 13.992 13.4 13.992C13.672 13.992 13.904 14.112 14.096 14.352C14.288 14.592 14.384 14.888 14.384 15.24C14.384 15.48 14.344 15.696 14.264 15.888C14.184 16.064 14.04 16.232 13.832 16.392C13.112 16.984 12.288 17.44 11.36 17.76C10.432 18.064 9.44 18.216 8.384 18.216ZM18.3136 18.144C17.8816 18.144 17.5216 18.024 17.2336 17.784C16.9616 17.528 16.8256 17.168 16.8256 16.704V2.376C16.8256 1.912 16.9616 1.56 17.2336 1.32C17.5216 1.08 17.8816 0.959999 18.3136 0.959999C18.7456 0.959999 19.1056 1.08 19.3936 1.32C19.6816 1.56 19.8256 1.912 19.8256 2.376V16.704C19.8256 17.168 19.6816 17.528 19.3936 17.784C19.1056 18.024 18.7456 18.144 18.3136 18.144ZM24.4074 18.144C23.9754 18.144 23.6154 18.024 23.3274 17.784C23.0554 17.528 22.9194 17.168 22.9194 16.704V7.44C22.9194 6.976 23.0554 6.624 23.3274 6.384C23.6154 6.144 23.9754 6.024 24.4074 6.024C24.8394 6.024 25.1994 6.144 25.4874 6.384C25.7754 6.624 25.9194 6.976 25.9194 7.44V16.704C25.9194 17.168 25.7754 17.528 25.4874 17.784C25.1994 18.024 24.8394 18.144 24.4074 18.144ZM24.4074 3.888C23.8634 3.888 23.4314 3.744 23.1114 3.456C22.7914 3.152 22.6314 2.76 22.6314 2.28C22.6314 1.8 22.7914 1.416 23.1114 1.128C23.4314 0.84 23.8634 0.696 24.4074 0.696C24.9354 0.696 25.3594 0.84 25.6794 1.128C26.0154 1.416 26.1834 1.8 26.1834 2.28C26.1834 2.76 26.0234 3.152 25.7034 3.456C25.3834 3.744 24.9514 3.888 24.4074 3.888ZM42.9571 5.976C44.2371 5.976 45.2131 6.36 45.8851 7.128C46.5731 7.88 46.9171 9.104 46.9171 10.8V16.704C46.9171 17.168 46.7731 17.528 46.4851 17.784C46.2131 18.024 45.8531 18.144 45.4051 18.144C44.9731 18.144 44.6131 18.024 44.3251 17.784C44.0531 17.528 43.9171 17.168 43.9171 16.704V10.8C43.9171 9.92 43.7571 9.296 43.4371 8.928C43.1331 8.544 42.6611 8.352 42.0211 8.352C41.2371 8.352 40.6131 8.624 40.1491 9.168C39.6851 9.696 39.4531 10.424 39.4531 11.352V16.704C39.4531 17.168 39.3091 17.528 39.0211 17.784C38.7491 18.024 38.3971 18.144 37.9651 18.144C37.5331 18.144 37.1731 18.024 36.8851 17.784C36.5971 17.528 36.4531 17.168 36.4531 16.704V10.8C36.4531 9.92 36.2931 9.296 35.9731 8.928C35.6691 8.544 35.1971 8.352 34.5571 8.352C33.7731 8.352 33.1491 8.624 32.6851 9.168C32.2371 9.696 32.0131 10.424 32.0131 11.352V16.704C32.0131 17.168 31.8691 17.528 31.5811 17.784C31.2931 18.024 30.9331 18.144 30.5011 18.144C30.0691 18.144 29.7091 18.024 29.4211 17.784C29.1491 17.528 29.0131 17.168 29.0131 16.704V7.416C29.0131 6.968 29.1571 6.624 29.4451 6.384C29.7331 6.144 30.0931 6.024 30.5251 6.024C30.9411 6.024 31.2771 6.144 31.5331 6.384C31.8051 6.608 31.9411 6.936 31.9411 7.368V7.944C32.3091 7.304 32.7971 6.816 33.4051 6.48C34.0291 6.144 34.7411 5.976 35.5411 5.976C37.3011 5.976 38.4771 6.712 39.0691 8.184C39.4211 7.512 39.9411 6.976 40.6291 6.576C41.3171 6.176 42.0931 5.976 42.9571 5.976ZM55.0543 5.976C56.6863 5.976 57.8943 6.384 58.6783 7.2C59.4783 8 59.8783 9.224 59.8783 10.872V16.728C59.8783 17.16 59.7503 17.504 59.4943 17.76C59.2383 18 58.8863 18.12 58.4383 18.12C58.0223 18.12 57.6783 17.992 57.4063 17.736C57.1503 17.48 57.0223 17.144 57.0223 16.728V16.2C56.7503 16.824 56.3183 17.312 55.7263 17.664C55.1503 18.016 54.4783 18.192 53.7103 18.192C52.9263 18.192 52.2143 18.032 51.5742 17.712C50.9343 17.392 50.4303 16.952 50.0623 16.392C49.6943 15.832 49.5103 15.208 49.5103 14.52C49.5103 13.656 49.7263 12.976 50.1583 12.48C50.6063 11.984 51.3263 11.624 52.3183 11.4C53.3103 11.176 54.6783 11.064 56.4223 11.064H57.0223V10.512C57.0223 9.728 56.8543 9.16 56.5183 8.808C56.1823 8.44 55.6383 8.256 54.8863 8.256C54.4223 8.256 53.9503 8.328 53.4703 8.472C52.9903 8.6 52.4223 8.792 51.7663 9.048C51.3503 9.256 51.0463 9.36 50.8543 9.36C50.5663 9.36 50.3263 9.256 50.1343 9.048C49.9583 8.84 49.8703 8.568 49.8703 8.232C49.8703 7.96 49.9343 7.728 50.0623 7.536C50.2063 7.328 50.4383 7.136 50.7583 6.96C51.3183 6.656 51.9823 6.416 52.7503 6.24C53.5343 6.064 54.3023 5.976 55.0543 5.976ZM54.3103 16.032C55.1103 16.032 55.7583 15.768 56.2543 15.24C56.7663 14.696 57.0223 14 57.0223 13.152V12.648H56.5903C55.5183 12.648 54.6863 12.696 54.0943 12.792C53.5023 12.888 53.0783 13.056 52.8223 13.296C52.5663 13.536 52.4383 13.864 52.4383 14.28C52.4383 14.792 52.6143 15.216 52.9663 15.552C53.3343 15.872 53.7823 16.032 54.3103 16.032ZM69.0232 15.912C69.8232 15.96 70.2232 16.32 70.2232 16.992C70.2232 17.376 70.0632 17.672 69.7432 17.88C69.4392 18.072 68.9992 18.152 68.4232 18.12L67.7752 18.072C65.0872 17.88 63.7432 16.44 63.7432 13.752V8.52H62.5432C62.1112 8.52 61.7752 8.424 61.5352 8.232C61.3112 8.04 61.1992 7.76 61.1992 7.392C61.1992 7.024 61.3112 6.744 61.5352 6.552C61.7752 6.36 62.1112 6.264 62.5432 6.264H63.7432V4.056C63.7432 3.624 63.8792 3.28 64.1512 3.024C64.4232 2.768 64.7912 2.64 65.2552 2.64C65.7032 2.64 66.0632 2.768 66.3352 3.024C66.6072 3.28 66.7432 3.624 66.7432 4.056V6.264H68.7832C69.2152 6.264 69.5432 6.36 69.7672 6.552C70.0072 6.744 70.1272 7.024 70.1272 7.392C70.1272 7.76 70.0072 8.04 69.7672 8.232C69.5432 8.424 69.2152 8.52 68.7832 8.52H66.7432V13.968C66.7432 15.152 67.2872 15.784 68.3752 15.864L69.0232 15.912ZM81.0746 14.784C81.3466 14.784 81.5626 14.888 81.7226 15.096C81.8986 15.304 81.9866 15.584 81.9866 15.936C81.9866 16.432 81.6906 16.848 81.0986 17.184C80.5546 17.488 79.9386 17.736 79.2506 17.928C78.5626 18.104 77.9066 18.192 77.2826 18.192C75.3946 18.192 73.8986 17.648 72.7946 16.56C71.6906 15.472 71.1386 13.984 71.1386 12.096C71.1386 10.896 71.3786 9.832 71.8586 8.904C72.3386 7.976 73.0106 7.256 73.8746 6.744C74.7546 6.232 75.7466 5.976 76.8506 5.976C77.9066 5.976 78.8266 6.208 79.6106 6.672C80.3946 7.136 81.0026 7.792 81.4346 8.64C81.8666 9.488 82.0826 10.488 82.0826 11.64C82.0826 12.328 81.7786 12.672 81.1706 12.672H74.0906C74.1866 13.776 74.4986 14.592 75.0266 15.12C75.5546 15.632 76.3226 15.888 77.3306 15.888C77.8426 15.888 78.2906 15.824 78.6746 15.696C79.0746 15.568 79.5226 15.392 80.0186 15.168C80.4986 14.912 80.8506 14.784 81.0746 14.784ZM76.9226 8.088C76.1066 8.088 75.4506 8.344 74.9546 8.856C74.4746 9.368 74.1866 10.104 74.0906 11.064H79.5146C79.4826 10.088 79.2426 9.352 78.7946 8.856C78.3466 8.344 77.7226 8.088 76.9226 8.088Z" fill="white"/>
<path d="M86.8546 10.986C87.8066 10.986 88.5112 11.224 88.9686 11.7C89.4352 12.1667 89.6686 12.8807 89.6686 13.842V17.258C89.6686 17.51 89.5939 17.7107 89.4446 17.86C89.2952 18 89.0899 18.07 88.8286 18.07C88.5859 18.07 88.3852 17.9953 88.2266 17.846C88.0772 17.6967 88.0026 17.5007 88.0026 17.258V16.95C87.8439 17.314 87.5919 17.5987 87.2466 17.804C86.9106 18.0093 86.5186 18.112 86.0706 18.112C85.6132 18.112 85.1979 18.0187 84.8246 17.832C84.4512 17.6453 84.1572 17.3887 83.9426 17.062C83.7279 16.7353 83.6206 16.3713 83.6206 15.97C83.6206 15.466 83.7466 15.0693 83.9986 14.78C84.2599 14.4907 84.6799 14.2807 85.2586 14.15C85.8372 14.0193 86.6352 13.954 87.6526 13.954H88.0026V13.632C88.0026 13.1747 87.9046 12.8433 87.7086 12.638C87.5126 12.4233 87.1952 12.316 86.7566 12.316C86.4859 12.316 86.2106 12.358 85.9306 12.442C85.6506 12.5167 85.3192 12.6287 84.9366 12.778C84.6939 12.8993 84.5166 12.96 84.4046 12.96C84.2366 12.96 84.0966 12.8993 83.9846 12.778C83.8819 12.6567 83.8306 12.498 83.8306 12.302C83.8306 12.1433 83.8679 12.008 83.9426 11.896C84.0266 11.7747 84.1619 11.6627 84.3486 11.56C84.6752 11.3827 85.0626 11.2427 85.5106 11.14C85.9679 11.0373 86.4159 10.986 86.8546 10.986ZM86.4206 16.852C86.8872 16.852 87.2652 16.698 87.5546 16.39C87.8532 16.0727 88.0026 15.6667 88.0026 15.172V14.878H87.7506C87.1252 14.878 86.6399 14.906 86.2946 14.962C85.9492 15.018 85.7019 15.116 85.5526 15.256C85.4032 15.396 85.3286 15.5873 85.3286 15.83C85.3286 16.1287 85.4312 16.376 85.6366 16.572C85.8512 16.7587 86.1126 16.852 86.4206 16.852ZM95.3811 10.986C95.9691 10.986 96.4918 11.1353 96.9491 11.434C97.4158 11.7327 97.7751 12.1573 98.0271 12.708C98.2884 13.2493 98.4191 13.8747 98.4191 14.584C98.4191 15.2933 98.2884 15.914 98.0271 16.446C97.7751 16.978 97.4204 17.3887 96.9631 17.678C96.5058 17.9673 95.9784 18.112 95.3811 18.112C94.8958 18.112 94.4618 18.0093 94.0791 17.804C93.6964 17.5987 93.4024 17.314 93.1971 16.95V19.806C93.1971 20.0487 93.1178 20.24 92.9591 20.38C92.8004 20.52 92.5904 20.59 92.3291 20.59C92.0678 20.59 91.8531 20.5153 91.6851 20.366C91.5264 20.2167 91.4471 20.0207 91.4471 19.778V11.84C91.4471 11.588 91.5218 11.3873 91.6711 11.238C91.8298 11.0887 92.0398 11.014 92.3011 11.014C92.5624 11.014 92.7724 11.0887 92.9311 11.238C93.0898 11.3873 93.1691 11.588 93.1691 11.84V12.19C93.3744 11.8073 93.6684 11.5133 94.0511 11.308C94.4431 11.0933 94.8864 10.986 95.3811 10.986ZM94.9191 16.754C95.4698 16.754 95.8991 16.5673 96.2071 16.194C96.5151 15.8113 96.6691 15.2747 96.6691 14.584C96.6691 13.8747 96.5151 13.324 96.2071 12.932C95.8991 12.54 95.4698 12.344 94.9191 12.344C94.3591 12.344 93.9251 12.5353 93.6171 12.918C93.3184 13.3007 93.1691 13.8467 93.1691 14.556C93.1691 15.256 93.3184 15.7973 93.6171 16.18C93.9251 16.5627 94.3591 16.754 94.9191 16.754ZM103.789 10.986C104.377 10.986 104.9 11.1353 105.357 11.434C105.824 11.7327 106.183 12.1573 106.435 12.708C106.697 13.2493 106.827 13.8747 106.827 14.584C106.827 15.2933 106.697 15.914 106.435 16.446C106.183 16.978 105.829 17.3887 105.371 17.678C104.914 17.9673 104.387 18.112 103.789 18.112C103.304 18.112 102.87 18.0093 102.487 17.804C102.105 17.5987 101.811 17.314 101.605 16.95V19.806C101.605 20.0487 101.526 20.24 101.367 20.38C101.209 20.52 100.999 20.59 100.737 20.59C100.476 20.59 100.261 20.5153 100.093 20.366C99.9346 20.2167 99.8553 20.0207 99.8553 19.778V11.84C99.8553 11.588 99.93 11.3873 100.079 11.238C100.238 11.0887 100.448 11.014 100.709 11.014C100.971 11.014 101.181 11.0887 101.339 11.238C101.498 11.3873 101.577 11.588 101.577 11.84V12.19C101.783 11.8073 102.077 11.5133 102.459 11.308C102.851 11.0933 103.295 10.986 103.789 10.986ZM103.327 16.754C103.878 16.754 104.307 16.5673 104.615 16.194C104.923 15.8113 105.077 15.2747 105.077 14.584C105.077 13.8747 104.923 13.324 104.615 12.932C104.307 12.54 103.878 12.344 103.327 12.344C102.767 12.344 102.333 12.5353 102.025 12.918C101.727 13.3007 101.577 13.8467 101.577 14.556C101.577 15.256 101.727 15.7973 102.025 16.18C102.333 16.5627 102.767 16.754 103.327 16.754Z" fill="white" fill-opacity="0.4"/>
</svg>
