<svg id="a51aa3f3-1eee-4b9c-a018-a525d9332d98" data-name="Layer 1" xmlns="http://www.w3.org/2000/svg" width="918.24175" height="722.80092" viewBox="0 0 918.24175 722.80092"><title>after_the_rain</title><path d="M385.12087,654.81958c0-4.58537-20.04883-8.61862-50.38107-10.95212,24.03147-.48769,41.84261-2.26125,41.84261-4.37481,0-2.48967-24.71168-4.50792-55.195-4.50792s-55.19506,2.01825-55.19506,4.50792c0,.82146,2.69165,1.5915,7.39179,2.25476-61.056.03412-110.46322,5.87328-110.46322,13.07217,0,3.74663,13.386,7.12468,34.82818,9.50823-13.02483.82463-21.41059,2.1146-21.41059,3.56473,0,2.48965,24.71168,4.50792,55.19505,4.50792s55.19506-2.01827,55.19506-4.50792a.38992.38992,0,0,0-.01348-.08694C342.19107,667.05829,385.12087,661.52984,385.12087,654.81958Z" transform="translate(-140.87913 -88.59954)" fill="#f2f2f2"/><path d="M292.20514,644.46883q-2.20933,0-4.36517.03373c23.43751.35062,41.7809,3.493,41.7809,7.31925s-18.34339,6.96856-41.7809,7.31918q2.15648.03221,4.36517.03372c25.48574,0,46.14607-3.292,46.14607-7.3529S317.69088,644.46883,292.20514,644.46883Z" transform="translate(-140.87913 -88.59954)" opacity="0.1"/><path d="M256.0366,648.21041q2.20935,0,4.36517.03372c-23.43751.35062-41.7809,3.493-41.7809,7.31925s18.34339,6.96856,41.7809,7.31918q-2.15648.0322-4.36517.03372c-25.48573,0-46.14606-3.292-46.14606-7.3529S230.55087,648.21041,256.0366,648.21041Z" transform="translate(-140.87913 -88.59954)" opacity="0.1"/><path d="M235.86262,653.9684s5-21,40-14,40,14,40,14Z" transform="translate(-140.87913 -88.59954)" fill="#3f3d56"/><path d="M240.78787,617.84918c8.33613,15.45973,26.0284,22.09626,26.0284,22.09626s4.17673-18.42864-4.15941-33.88837-26.0284-22.09625-26.0284-22.09625S232.45173,602.38946,240.78787,617.84918Z" transform="translate(-140.87913 -88.59954)" fill="#3f3d56"/><path d="M246.51761,612.763c15.05016,9.05467,20.84645,27.03975,20.84645,27.03975s-18.60484,3.30455-33.655-5.75012-20.84645-27.03975-20.84645-27.03975S231.46745,603.70837,246.51761,612.763Z" transform="translate(-140.87913 -88.59954)" fill="#6c63ff"/><path d="M469.14225,369.461c0,123.61-73.4842,166.77-164.13156,166.77s-164.13156-43.16-164.13156-166.77S305.01069,88.59954,305.01069,88.59954,469.14225,245.851,469.14225,369.461Z" transform="translate(-140.87913 -88.59954)" fill="#f2f2f2"/><polygon points="158.153 428.723 159.833 325.273 229.79 197.289 160.097 309.044 160.852 262.528 209.067 169.934 161.052 250.219 161.052 250.219 162.412 166.559 214.04 92.842 162.625 153.403 163.474 0 158.138 203.078 158.576 194.701 106.085 114.354 157.735 210.783 152.844 304.217 152.698 301.737 92.185 217.184 152.515 310.498 151.903 322.183 151.794 322.359 151.844 323.318 139.435 560.368 156.014 560.368 158.003 437.927 218.185 344.842 158.153 428.723" fill="#3f3d56"/><path d="M410.28438,564.99219,401.684,579.05077s-.41332,3.5607,2.45017,1.40435,8.42608-14.701,8.42608-14.701Z" transform="translate(-140.87913 -88.59954)" fill="#2f2e41"/><path d="M484.137,430.46213l21.6465-36.107a17.44509,17.44509,0,0,1,13.43287-8.54317c4.39306-.35549,9.02028,1.02718,11.32406,7.23025,5.11951,13.78461-5.16911,24.163-5.16911,24.163s-4.49693,1.22012-4.25792-2.983l5.14928-8.98394s4.27775-12.196-7.68919-13.08739-29.068,40.30328-29.068,40.30328Z" transform="translate(-140.87913 -88.59954)" fill="#2f2e41"/><path d="M497.3241,435.85041,483.35527,447.917c-.02432,5.17253-4.59521,15.62726-11.36639,28.29292q-.77254,1.46145-1.59131,2.95608c-4.02214,7.3677-8.69368,15.36679-13.58491,23.44616q-.80652,1.33617-1.62585,2.67579c-5.47272,8.96137-11.1597,17.94635-16.47265,26.17466-.55277.86036-1.10265,1.70617-1.64437,2.55667-6.1284,9.4427-11.65445,17.7495-15.64553,23.68106-.5896.87726-1.14654,1.69741-1.66067,2.47143-2.97673,4.40793-4.75318,6.98668-4.75318,6.98668a6.23668,6.23668,0,0,1-3.535.95223,2.80718,2.80718,0,0,1-2.19493-1.4805c-1.295-2.17987-.8586-5.96064-.8586-5.96064.95353-6.42473,3.9019-14.52185,8.06907-23.43933.49538-1.07245,1.0146-2.15823,1.54493-3.25392,4.24286-8.68973,9.50766-18.03607,15.1243-27.30544q.81617-1.33881,1.63236-2.67756c5.45791-8.8884,11.17374-17.63983,16.55174-25.603.5633-.82183,1.11547-1.63379,1.66122-2.444,5.28834-7.75953,10.17222-14.67129,14.07041-20.081.586-.81423,1.14226-1.58591,1.67972-2.32488,4.45667-6.14752,7.24919-9.83647,7.24919-9.83647l3.17714-18.79453,6.08492,3.66667,4.68434,2.82592Z" transform="translate(-140.87913 -88.59954)" fill="#3f3d56"/><path d="M418.03583,533.97631l3.38843,23.72405c-.5896.87726-1.14654,1.69741-1.66067,2.47143l-3.27269-22.94156C416.98628,536.15778,417.5055,535.072,418.03583,533.97631Z" transform="translate(-140.87913 -88.59954)" fill="#6c63ff"/><path d="M434.79249,503.99331l3.92167,27.46932c-.55277.86036-1.10265,1.70617-1.64437,2.55667l-3.90966-27.34843Q433.9763,505.33206,434.79249,503.99331Z" transform="translate(-140.87913 -88.59954)" fill="#6c63ff"/><path d="M453.00545,475.94637l3.80721,26.66581q-.80652,1.33617-1.62585,2.67579l-3.84258-26.89764C451.90753,477.5685,452.4597,476.75654,453.00545,475.94637Z" transform="translate(-140.87913 -88.59954)" fill="#6c63ff"/><path d="M468.75558,453.54045l3.2333,22.66949q-.77254,1.46145-1.59131,2.95608l-3.32171-23.30069C467.66185,455.0511,468.21812,454.27942,468.75558,453.54045Z" transform="translate(-140.87913 -88.59954)" fill="#6c63ff"/><path d="M1059.12087,740.81958c0-4.58537-20.04883-8.61862-50.38107-10.95212,24.03147-.48769,41.84261-2.26125,41.84261-4.37481,0-2.48967-24.71168-4.50792-55.19505-4.50792s-55.19506,2.01825-55.19506,4.50792c0,.82146,2.69165,1.5915,7.39179,2.25476-61.056.03412-110.46322,5.87328-110.46322,13.07217,0,3.74663,13.386,7.12468,34.82818,9.50823-13.02483.82463-21.41059,2.1146-21.41059,3.56473,0,2.48965,24.71168,4.50792,55.19505,4.50792s55.19506-2.01827,55.19506-4.50792a.38992.38992,0,0,0-.01348-.08694C1016.19107,753.05829,1059.12087,747.52984,1059.12087,740.81958Z" transform="translate(-140.87913 -88.59954)" fill="#f2f2f2"/><path d="M966.20514,730.46883q-2.20934,0-4.36517.03373c23.43751.35062,41.7809,3.493,41.7809,7.31925s-18.34339,6.96856-41.7809,7.31918q2.15648.03221,4.36517.03372c25.48574,0,46.14607-3.292,46.14607-7.3529S991.69088,730.46883,966.20514,730.46883Z" transform="translate(-140.87913 -88.59954)" opacity="0.1"/><path d="M930.0366,734.21041q2.20935,0,4.36517.03372c-23.43751.35062-41.7809,3.493-41.7809,7.31925s18.34339,6.96856,41.7809,7.31918q-2.15648.0322-4.36517.03372c-25.48573,0-46.14606-3.292-46.14606-7.3529S904.55087,734.21041,930.0366,734.21041Z" transform="translate(-140.87913 -88.59954)" opacity="0.1"/><path d="M371.12087,793.81958c0-4.58537-20.04883-8.61862-50.38107-10.95212,24.03147-.48769,41.84261-2.26125,41.84261-4.37481,0-2.48967-24.71168-4.50792-55.195-4.50792s-55.19506,2.01825-55.19506,4.50792c0,.82146,2.69165,1.5915,7.39179,2.25476-61.056.03412-110.46322,5.87328-110.46322,13.07217,0,3.74663,13.386,7.12468,34.82818,9.50823-13.02483.82463-21.41059,2.1146-21.41059,3.56473,0,2.48965,24.71168,4.50792,55.19505,4.50792s55.19506-2.01827,55.19506-4.50792a.38992.38992,0,0,0-.01348-.08694C328.19107,806.05829,371.12087,800.52984,371.12087,793.81958Z" transform="translate(-140.87913 -88.59954)" fill="#f2f2f2"/><path d="M278.20514,783.46883q-2.20933,0-4.36517.03373c23.43751.35062,41.7809,3.493,41.7809,7.31925s-18.34339,6.96856-41.7809,7.31918q2.15648.03221,4.36517.03372c25.48574,0,46.14607-3.292,46.14607-7.3529S303.69088,783.46883,278.20514,783.46883Z" transform="translate(-140.87913 -88.59954)" opacity="0.1"/><path d="M242.0366,787.21041q2.20935,0,4.36517.03372c-23.43751.35062-41.7809,3.493-41.7809,7.31925s18.34339,6.96856,41.7809,7.31918q-2.15648.0322-4.36517.03372c-25.48573,0-46.14606-3.292-46.14606-7.3529S216.55087,787.21041,242.0366,787.21041Z" transform="translate(-140.87913 -88.59954)" opacity="0.1"/><path d="M769.12087,714.6926c0-10.17182-32.87286-19.11884-82.60681-24.29529,39.403-1.08185,68.60681-5.01618,68.60681-9.70471,0-5.52289-40.51825-10-90.5-10s-90.5,4.47711-90.5,10c0,1.82226,4.41333,3.53045,12.11988,5.00177-100.10987.07568-181.11988,13.02881-181.11988,28.99823,0,8.31122,21.94818,15.80481,57.10566,21.09228-21.356,1.82929-35.10566,4.69086-35.10566,7.90772,0,5.52282,40.51825,10,90.5,10s90.5-4.47718,90.5-10a1.14958,1.14958,0,0,0-.02209-.19287C698.73147,741.842,769.12087,729.5781,769.12087,714.6926Z" transform="translate(-140.87913 -88.59954)" fill="#f2f2f2"/><path d="M683.62087,703.297q-1.77146,0-3.5.027c18.79224.28112,33.5,2.80072,33.5,5.86859s-14.70776,5.5874-33.5,5.86853q1.72907.02581,3.5.027c20.43451,0,37-2.63953,37-5.89557S704.05538,703.297,683.62087,703.297Z" transform="translate(-140.87913 -88.59954)" opacity="0.1"/><path d="M690.62087,675.297q-1.77146,0-3.5.027c18.79224.28112,33.5,2.80072,33.5,5.86859s-14.70776,5.5874-33.5,5.86853q1.72907.02581,3.5.027c20.43451,0,37-2.63953,37-5.89557S711.05538,675.297,690.62087,675.297Z" transform="translate(-140.87913 -88.59954)" opacity="0.1"/><path d="M506.62087,703.297q1.77146,0,3.5.027c-18.79223.28112-33.5,2.80072-33.5,5.86859s14.70777,5.5874,33.5,5.86853q-1.72907.02581-3.5.027c-20.43451,0-37-2.63953-37-5.89557S486.18636,703.297,506.62087,703.297Z" transform="translate(-140.87913 -88.59954)" opacity="0.1"/><path d="M640.62087,674.297q1.77146,0,3.5.027c-18.79223.28112-33.5,2.80072-33.5,5.86859s14.70777,5.5874,33.5,5.86853q-1.72906.02581-3.5.027c-20.43451,0-37-2.63953-37-5.89557S620.18636,674.297,640.62087,674.297Z" transform="translate(-140.87913 -88.59954)" opacity="0.1"/><path d="M651.47866,725.1926c-7.8197,1.85131-29.41833,3.18251-54.85779,3.18251s-47.03808-1.3312-54.85778-3.18251c-2.02655.47981-3.14222.994-3.14222,1.52962,0,2.60243,25.96747,4.71214,58,4.71214s58-2.10971,58-4.71214C654.62087,726.18658,653.50515,725.67241,651.47866,725.1926Z" transform="translate(-140.87913 -88.59954)" opacity="0.1"/><path d="M656.47866,700.1926c-7.8197-.96151-29.41833-1.65289-54.85779-1.65289s-47.03808.69138-54.85778,1.65289c-2.02655-.2492-3.14222-.51624-3.14222-.79444,0-1.35161,25.96747-2.44732,58-2.44732s58,1.09571,58,2.44732C659.62087,699.67636,658.50515,699.9434,656.47866,700.1926Z" transform="translate(-140.87913 -88.59954)" opacity="0.1"/><path d="M538.59146,746.91872c-3.98707.95033-14.99966,1.63367-27.97059,1.63367s-23.98351-.68334-27.97058-1.63367c-1.03328.2463-1.60213.51024-1.60213.7852,0,1.3359,13.24015,2.41886,29.57271,2.41886s29.57272-1.083,29.57272-2.41886C540.19359,747.429,539.62471,747.165,538.59146,746.91872Z" transform="translate(-140.87913 -88.59954)" opacity="0.1"/><path d="M950.25129,739.92738l-1.77734-.918c23.082-44.624,10.73926-102.57519-3.67871-143.332a439.29179,439.29179,0,0,0-37.27783-78.6748l1.69043-1.06836A441.53613,441.53613,0,0,1,946.68,595.00941C961.23079,636.1393,973.66047,694.66859,950.25129,739.92738Z" transform="translate(-140.87913 -88.59954)" fill="#3f3d56"/><rect x="925.77246" y="550.96872" width="72.18033" height="1.99936" transform="matrix(0.17975, -0.98371, 0.98371, 0.17975, 105.11486, 1310.35228)" fill="#3f3d56"/><rect x="912.86226" y="564.29269" width="2.00072" height="98.35141" transform="translate(-313.94096 698.3151) rotate(-42.93968)" fill="#3f3d56"/><rect x="956.35831" y="678.96824" width="58.00862" height="2.00031" transform="translate(-283.84937 991.57065) rotate(-54.13715)" fill="#3f3d56"/><circle cx="832.48349" cy="398.86886" r="10" fill="#6c63ff"/><circle cx="723.48349" cy="475.86886" r="10" fill="#3f3d56"/><circle cx="767.48349" cy="485.86886" r="10" fill="#3f3d56"/><circle cx="747.48349" cy="524.86886" r="10" fill="#6c63ff"/><circle cx="872.48349" cy="549.86886" r="10" fill="#3f3d56"/><circle cx="839.48349" cy="560.86886" r="10" fill="#3f3d56"/><circle cx="862.48349" cy="592.86886" r="10" fill="#3f3d56"/><circle cx="757.48349" cy="410.86886" r="10" fill="#3f3d56"/><circle cx="442.83273" cy="156.27861" r="25.6828" fill="#2f2e41"/><path d="M567.61682,262.182s2.21013,25.41658,0,32.047,28.73179-3.3152,28.73179-3.3152S584.19285,262.182,586.403,259.41928,567.61682,262.182,567.61682,262.182Z" transform="translate(-140.87913 -88.59954)" fill="#ffb8b8"/><path d="M566.788,448.10979l-1.65761,81.22257s-1.10507,7.18294,3.86774,15.471,27.07419,70.72441,27.07419,70.72441l18.23364-9.94562-1.65761-24.864s-3.3152-34.25714-14.36589-46.96543l16.0235-77.90735Z" transform="translate(-140.87913 -88.59954)" fill="#ffb8b8"/><path d="M566.788,448.10979l-1.65761,81.22257s-1.10507,7.18294,3.86774,15.471,27.07419,70.72441,27.07419,70.72441l18.23364-9.94562-1.65761-24.864s-3.3152-34.25714-14.36589-46.96543l16.0235-77.90735Z" transform="translate(-140.87913 -88.59954)" opacity="0.1"/><path d="M616.51611,593.97889s-45.86035,9.39308-38.12487,24.31151,22.10138,45.86036,22.10138,45.86036,3.86774,19.33871-3.31521,23.20645-22.10138,27.07418-7.73548,25.96911,28.17925-17.12856,28.17925-17.12856l12.15576-15.471,2.21014,3.86774,22.10138-18.23363s8.288-17.6811-22.10138-26.52166Z" transform="translate(-140.87913 -88.59954)" fill="#2f2e41"/><path d="M616.51611,593.97889s-45.86035,9.39308-38.12487,24.31151,22.10138,45.86036,22.10138,45.86036,3.86774,19.33871-3.31521,23.20645-22.10138,27.07418-7.73548,25.96911,28.17925-17.12856,28.17925-17.12856l12.15576-15.471,2.21014,3.86774,22.10138-18.23363s8.288-17.6811-22.10138-26.52166Z" transform="translate(-140.87913 -88.59954)" opacity="0.1"/><path d="M557.39493,450.31993l-1.6576,81.22256s-1.10507,7.183,3.86774,15.471,27.07419,70.72441,27.07419,70.72441l18.23363-9.94562-1.6576-24.86405s-3.31521-34.25714-14.3659-46.96543l16.0235-77.90736Z" transform="translate(-140.87913 -88.59954)" fill="#ffb8b8"/><path d="M607.123,596.189s-45.86036,9.39309-38.12488,24.31152,22.10138,45.86036,22.10138,45.86036,3.86774,19.3387-3.31521,23.20644-22.10137,27.07419-7.73548,25.96912,28.17926-17.12857,28.17926-17.12857l12.15576-15.471,2.21013,3.86774L644.69537,668.571s8.288-17.68111-22.10138-26.52166Z" transform="translate(-140.87913 -88.59954)" fill="#2f2e41"/><circle cx="434.47317" cy="166.39947" r="20.99631" fill="#ffb8b8"/><path d="M572.86589,286.76974s23.20645-12.70829,33.7046-12.70829,22.10138-4.97281,23.20645,1.10507,12.15576,22.10137,1.10507,20.9963-19.89124.55254-25.41658,0S572.86589,286.76974,572.86589,286.76974Z" transform="translate(-140.87913 -88.59954)" fill="#575a89"/><path d="M559.60507,431.53376s-9.94562,24.86405-3.31521,25.96912,44.20276,3.86774,45.86036,2.76267S609.33317,430.42869,559.60507,431.53376Z" transform="translate(-140.87913 -88.59954)" fill="#6c63ff"/><path d="M627.5668,442.58445c-11.60322,11.05069-4.97281,16.0235-9.39308,24.31152s-37.01981,1.6576-50.28064-16.0235-16.576-11.05069-30.94192-13.26083-27.07419-12.70829-14.91843-18.78617c5.553-2.77927,10.76336-8.55326,14.41567-15.80251a48.81347,48.81347,0,0,0,4.97827-17.08988,41.72594,41.72594,0,0,0-.60777-12.41543c-2.21014-10.73574,1.53606-31.93649,7.625-50.81661,4.30426-13.34922,9.78536-25.53813,15.16151-32.047.32051-.39781.64642-.768.97247-1.12163,13.26082-14.36589,43.09768-3.86774,43.09768-3.86774s22.10138,18.23364,14.3659,41.44008a79.51142,79.51142,0,0,0,2.21014,57.46358C630.32948,398.3817,639.17,431.53376,627.5668,442.58445Z" transform="translate(-140.87913 -88.59954)" fill="#575a89"/><path d="M541.37143,397.27663l-6.07788,3.86774s-24.864-7.183-24.31151,0,25.96912,9.39308,25.96912,9.39308l8.84055-6.63041Z" transform="translate(-140.87913 -88.59954)" fill="#ffb8b8"/><path d="M571.20829,293.40015s-16.012-6.4577-15.74146,18.87253,8.006,55.71962,8.006,55.71962l-22.60815,32.70314,7.13718,10.94708,45.86036-37.57234V322.13194S591.65206,295.61029,571.20829,293.40015Z" transform="translate(-140.87913 -88.59954)" opacity="0.1"/><path d="M586.12672,319.36927v51.93824l-42.26888,34.5334-2.76268-6.07788c2.58583-5.13856-.25414-7.7576.33151-13.82995l14.31066-20.70345A311.73616,311.73616,0,0,1,548.4439,322.701c4.30426-13.34922,9.78536-25.53813,15.16151-32.047C583.92764,292.96363,586.12672,319.36927,586.12672,319.36927Z" transform="translate(-140.87913 -88.59954)" opacity="0.1"/><path d="M568.99815,290.63748s-16.01195-6.4577-15.74146,18.87253,8.006,55.71962,8.006,55.71962l-22.60815,32.70313,7.13719,10.94709,45.86035-37.57234V319.36927S589.44193,292.84762,568.99815,290.63748Z" transform="translate(-140.87913 -88.59954)" fill="#575a89"/><circle cx="470.65575" cy="122.46293" r="25.6828" fill="#2f2e41"/><path d="M633.68766,232.32947a25.6842,25.6842,0,0,1-39.661-13.4856,25.68422,25.68422,0,1,0,50.10022-10.53233A25.67472,25.67472,0,0,1,633.68766,232.32947Z" transform="translate(-140.87913 -88.59954)" fill="#2f2e41"/><circle cx="449.68146" cy="160.55907" r="18.83405" fill="#2f2e41"/><ellipse cx="433.84375" cy="153.49629" rx="16.69382" ry="13.05542" fill="#2f2e41"/><ellipse cx="429.39103" cy="166.87413" rx="3.16833" ry="5.60551" fill="#ffb8b8"/><path d="M678.02349,651.49147c1.49257-1.98717,2.75435-1.05785,4.29993.103s2.78967,2.11374,1.2971,4.10091-6.70219,3.09527-6.70219,3.09527S676.53092,653.47864,678.02349,651.49147Z" transform="translate(-140.87913 -88.59954)" fill="#f2f2f2"/><path d="M552.72312,672.22094c-1.74271-1.77189-.63584-2.88119.7423-4.23663s2.50565-2.44375,4.24836-.67186,2.06255,7.08843,2.06255,7.08843S554.46583,673.99282,552.72312,672.22094Z" transform="translate(-140.87913 -88.59954)" fill="#f2f2f2"/><path d="M662.26483,677.16959c2.31222.91119,1.75139,2.37447,1.04269,4.17287s-1.29692,3.25088-3.60914,2.33968-4.76415-5.6394-4.76415-5.6394S659.95261,676.2584,662.26483,677.16959Z" transform="translate(-140.87913 -88.59954)" opacity="0.1"/><path d="M565.38131,724.86165c-1.3763,2.0694-2.16734,1.561-3.13307.9187s-1.74047-1.17522-.36417-3.24462,5.3482-4.24934,5.3482-4.24934S566.75761,722.79225,565.38131,724.86165Z" transform="translate(-140.87913 -88.59954)" opacity="0.1"/><path d="M594.38131,726.86165c-1.3763,2.0694-2.16734,1.561-3.13307.9187s-1.74047-1.17522-.36417-3.24462,5.3482-4.24934,5.3482-4.24934S595.75761,724.79225,594.38131,726.86165Z" transform="translate(-140.87913 -88.59954)" opacity="0.1"/><path d="M630.51338,712.88184c1.11243,2.22241.27825,2.65642-.7589,3.17557s-1.8845.92682-2.99693-1.29559-1.03153-6.75249-1.03153-6.75249S629.401,710.65943,630.51338,712.88184Z" transform="translate(-140.87913 -88.59954)" opacity="0.1"/><path d="M617.51338,716.88184c1.11243,2.22241.27825,2.65642-.7589,3.17557s-1.8845.92682-2.99693-1.29559-1.03153-6.75249-1.03153-6.75249S616.401,714.65943,617.51338,716.88184Z" transform="translate(-140.87913 -88.59954)" opacity="0.1"/><path d="M665.68142,630.16192c2.1761-1.20049,2.94592.16446,3.87964,1.857s1.67776,3.07169-.49834,4.27219-7.382.07519-7.382.07519S663.50531,631.36242,665.68142,630.16192Z" transform="translate(-140.87913 -88.59954)" fill="#f2f2f2"/></svg>