<svg id="e7d73eaa-25fa-486a-81c6-86c739fe4253" data-name="Layer 1" xmlns="http://www.w3.org/2000/svg" width="888" height="771.5132" viewBox="0 0 888 771.5132"><circle cx="416.64567" cy="118.28656" r="98" fill="#e6e6e6"/><path d="M234.67727,821.09609l47.82554-71.12137-47.72773,78.77266.09981,8.00294q-5.23719.03995-10.37262-.17441l2.372-102.87253-.065-.79363.08752-.15334.227-9.72083-52.37461-76.04184,52.31281,68.76636.18564,2.05468,1.79165-77.72422-45.23754-78.838,45.36638,65.18406-.47353-161.02454.001-.536.0154.52709,3.003,126.909,41.22862-51.5505L231.849,603.24519l.89984,69.5225,37.93881-67.85132-37.79937,78.07232.5009,38.658,55.17327-94.51608L233.55694,735.13284Z" transform="translate(-156 -65.2434)" fill="#e6e6e6"/><path d="M340.124,377.06368l-10.74993,23.3846,33.79818,14.8514s2.49469-28.07943,6.02369-30.44259Z" transform="translate(-156 -65.2434)" fill="#a0616a"/><circle cx="200.01494" cy="306.29066" r="25.02647" fill="#ffb9b9"/><path d="M369.92408,357.84492a56.01582,56.01582,0,0,0-9.06578,1.47828,8.29005,8.29005,0,0,0-3.473,1.50708c-1.63563,1.39836-2.03549,3.72764-2.33151,5.85907l-1.45456,10.47315a3.54882,3.54882,0,0,1-.67038,1.93047,4.11919,4.11919,0,0,1-2.14224.95758,12.95816,12.95816,0,0,0-7.07421,4.80161c-2.3468,3.18458-3.23491,7.45091-6.2647,9.99433-.79526-7.04923-6.42372-12.471-9.38093-18.91914a26.25291,26.25291,0,0,1-2.29052-13.013,20.36647,20.36647,0,0,1,.93615-4.7914,16.90209,16.90209,0,0,1,9.6327-10.20092c2.193-.87439,4.59154-1.29266,6.589-2.55133,1.08629-.68452,2.01684-1.597,3.1156-2.26132,2.22062-1.34269,4.93027-1.5639,7.52525-1.5631a54.04461,54.04461,0,0,1,16.051,2.44826c2.35576.735,4.83143,1.769,6.10435,3.88317a6.53662,6.53662,0,0,1-1.29392,7.82755,8.63817,8.63817,0,0,1-8.0046,1.8328" transform="translate(-156 -65.2434)" fill="#2f2e41"/><path d="M329.5266,379.04867S359.896,349.34151,383.291,365.19584c0,0,2.50515-22.97506-12.81852-28.0481s-23.19029-11.73195-23.19029-11.73195l-15.10844,4.15375-3.69194,18.65836S322.44767,373.56605,329.5266,379.04867Z" transform="translate(-156 -65.2434)" fill="#6c63ff"/><circle cx="177.91734" cy="252.93574" r="14.01483" fill="#6c63ff"/><path d="M299.85424,557.37178s15.58072,34.71748,28.7565,45.4883L364.49843,679.353,344.64567,800.53s-17.0562,31.10513,31,10L416.50356,669.2339,379.76549,560.93824Z" transform="translate(-156 -65.2434)" fill="#2f2e41"/><path d="M344.64567,800.53s-23.21863,31.867-1.10109,33.94453,35.40079,1.20192,43.42686,1.12705c7.67423-.07158,23.021.01787,20.67423-12.07158s-30-14-30-14Z" transform="translate(-156 -65.2434)" fill="#2f2e41"/><path d="M235.324,760.20108s-30.78368,24.63685-9.99162,32.45938,33.83784,10.472,41.60092,12.511c7.42278,1.94969,22.20556,6.07306,23.1216-6.208s-25.26064-21.3986-25.26064-21.3986Z" transform="translate(-156 -65.2434)" fill="#2f2e41"/><path d="M293.75088,514.79923s.52858,38.04974,8.35,53.1639l2.59541,84.45328L233.64567,759.53s-16.48551,22.3077,36,22l86.80248-117.77009,9.24111-113.98354Z" transform="translate(-156 -65.2434)" fill="#2f2e41"/><path d="M392.76445,575.62185c-.53031,9.59021-1.03855,16.5361-1.289,17.78829-.383,1.95931-10.069,3.52817-23.69559,3.97015-20.60939.66289-50.24914-1.24482-70.35761-8.29384-3.91121-1.37-6.92382-4.84667-9.20718-9.60492-6.9017-14.35587-7.24054-40.34957-6.02517-55.33884a184.37375,184.37375,0,0,1,3.101-21.15444c.91335-4.51521,1.87826-8.64,2.77686-12.124,1.74567-6.84281,3.182-11.21806,3.182-11.21806l.1547-9.94376.18414-12.0209.33147-21.05864.02945-1.7383c-16.91177-12.53651,6.1725-51.84749,6.95326-55.77344.7734-3.926,23.96812,7.80771,23.96812,7.80771l6.26826-5.90734,14.73886,8.02131,18.952-5.88527,11.91044,25.25717s4.01429,10.09108,8.31591,24.85939c1.81931,6.24613,3.68287,13.332,5.318,20.83767.83971,3.88176,1.62048,7.88873,2.29811,11.94726.906,5.38436,1.63522,10.87918,2.08452,16.32985.13258,1.51734.24308,3.04943.35359,4.60359.27253,3.88909.50086,7.91817.67026,11.99878.30935,6.93856.48612,14.05385.5745,21.02187C394.55432,536.60552,393.641,559.74868,392.76445,575.62185Z" transform="translate(-156 -65.2434)" fill="#3f3d56"/><path d="M288.06424,490.86164c1.75084-6.83763,3.18883-11.21663,3.18883-11.21663l.15042-9.94022,99.26982-3.65473c.90423,5.38335,1.63406,10.875,2.085,16.3319.1288,1.51533.24388,3.04842.35495,4.60112Z" transform="translate(-156 -65.2434)" fill="#6c63ff"/><path d="M394.35489,520.00617,282.19356,524.1408a184.69713,184.69713,0,0,1,3.09386-21.1544L393.77977,498.983C394.09045,505.92246,394.26412,513.03883,394.35489,520.00617Z" transform="translate(-156 -65.2434)" fill="#6c63ff"/><path d="M392.76445,575.62185c-.53031,9.59021-1.03855,16.5361-1.289,17.78829-.383,1.95931-10.069,3.52817-23.69559,3.97015-20.60939.66289-50.24914-1.24482-70.35761-8.29384-3.91121-1.37-6.92382-4.84667-9.20718-9.60492Z" transform="translate(-156 -65.2434)" fill="#6c63ff"/><path d="M405.23,532.81172s21.011,2.11653,13.974,17.05156-28.66242.45137-28.66242.45137Z" transform="translate(-156 -65.2434)" fill="#ffb9b9"/><path d="M414.65112,531.61448,396.24982,557.567s-4.42878-2.73357-11.134-6.90743c-2.07192-1.28761-4.362-2.71022-6.80541-4.23452-1.25219-.78865-2.5516-1.5968-3.87652-2.43043-2.18974-1.36193-4.46808-2.79238-6.79167-4.25224-1.26993-.8023-2.5674-1.6203-3.86475-2.43824-2.239-1.42272-4.50752-2.85124-6.76426-4.28761-16.52839-10.48521-32.69185-21.01042-35.85869-23.98411-4.71495-4.43315-15.39268-36.85387-21.6414-56.8465a44.54415,44.54415,0,0,1,6.15638-39.46788c7.96408-10.95551,16.46477-11.93688,23.50988-9.58363a23.02083,23.02083,0,0,1,15.39695,22.64982l-1.502,49.82816,36.221,28.34177,6.28273,4.91683,3.5886,2.802,6.28261,4.91688,3.5789,2.8001,6.28249,4.91678Z" transform="translate(-156 -65.2434)" fill="#3f3d56"/><path d="M297.03018,424.66241s18.769-38.12533,42.747-25.21706C339.77722,399.44536,314.0504,395.37524,297.03018,424.66241Z" transform="translate(-156 -65.2434)" opacity="0.1" style="isolation:isolate"/><path d="M395.44929,516.58987,374.434,543.99456c-2.18975-1.36193-4.46808-2.79238-6.79168-4.25224L389.16672,511.673Z" transform="translate(-156 -65.2434)" fill="#6c63ff"/><path d="M405.31069,524.30675l-20.19485,26.3528c-2.07191-1.28761-4.362-2.71022-6.8054-4.23453L399.0282,519.39Z" transform="translate(-156 -65.2434)" fill="#6c63ff"/><path d="M513.0317,812.001l67.50013-100.37946L513.16975,822.79989l.14086,11.29521q-7.39167.05637-14.63973-.24617l3.34786-145.19248-.09173-1.12011.12354-.21642.32043-13.71981L428.45037,566.276l73.83339,97.05563.262,2.89994,2.5287-109.69859L441.227,445.26245l64.02932,91.99963-.66833-227.2672.00143-.75643.02172.74392,4.23834,179.11714L567.03883,416.342,509.04,504.53005l1.27,98.12284,53.54616-95.76417L510.50679,617.07863l.707,54.56124,77.87058-133.39835L511.45049,690.674Z" transform="translate(-156 -65.2434)" fill="#e6e6e6"/><path d="M964.67727,821.09609l47.82554-71.12137-47.72773,78.77266.09981,8.00294q-5.23719.03995-10.37262-.17441l2.372-102.87253-.065-.79363.08752-.15334.227-9.72083-52.37461-76.04184,52.31281,68.76636.18564,2.05468,1.79165-77.72422-45.23754-78.838,45.36638,65.18406-.47353-161.02454.001-.536.0154.52709,3.003,126.909,41.22862-51.5505L961.849,603.24519l.89984,69.5225,37.93881-67.85132-37.79937,78.07232.5009,38.658,55.17327-94.51608L963.55694,735.13284Z" transform="translate(-156 -65.2434)" fill="#e6e6e6"/><path d="M779.67727,821.09609l47.82554-71.12137-47.72773,78.77266.09981,8.00294q-5.23719.03995-10.37262-.17441l2.372-102.87253-.065-.79363.08752-.15334.227-9.72083-52.37461-76.04184,52.31281,68.76636.18564,2.05468,1.79165-77.72422-45.23754-78.838,45.36638,65.18406-.47353-161.02454.001-.536.0154.52709,3.003,126.909,41.22862-51.5505L776.849,603.24519l.89984,69.5225,37.93881-67.85132-37.79937,78.07232.5009,38.658,55.17327-94.51608L778.55694,735.13284Z" transform="translate(-156 -65.2434)" fill="#e6e6e6"/><path d="M649.15657,803.073l99.05987-147.312L649.35917,818.9209l.20672,16.5763q-10.84764.08272-21.48454-.36127l4.91314-213.07735-.13461-1.64381.18129-.3176.47025-20.13452L525.02918,442.45905,633.38343,584.89311l.38451,4.25581,3.711-160.98826L543.77952,264.86553l93.96627,135.01413L636.765,66.35349l.00209-1.11009.03188,1.09174,6.22,262.8635,85.39583-106.7753L643.29852,351.84375,645.16233,495.844l78.58172-140.53879-78.29291,161.7093,1.03751,80.07139L760.76769,401.317,646.83606,625.01939Z" transform="translate(-156 -65.2434)" fill="#3f3d56"/><path d="M890.67641,809.443l-77.157-114.74012L890.51861,821.7868l-.161,12.91115q8.44914.06443,16.73414-.28139l-3.82681-165.96427.10485-1.28035-.14121-.24738-.36627-15.68262,84.496-122.67831L902.962,639.5044l-.29949,3.31481L899.772,517.42673l72.98174-127.1893L899.56418,495.39888l.76394-259.78091-.00163-.86464-.02483.85034L895.457,440.346l-66.51414-83.16644,66.29639,100.80453-1.45172,112.16066L832.58081,460.68019l60.98174,125.9541-.80811,62.367L803.74339,496.51844l88.74045,174.24Z" transform="translate(-156 -65.2434)" fill="#3f3d56"/><rect y="768.68503" width="888" height="2.24072" fill="#3f3d56"/></svg>