<svg xmlns="http://www.w3.org/2000/svg" width="758.824" height="629.021" viewBox="0 0 758.824 629.021">
  <g id="thunder" transform="translate(-200.478 -202.275)">
    <circle id="Elipse_1" data-name="Elipse 1" cx="216.462" cy="216.462" r="216.462" transform="translate(220.007 360.094)" fill="#f2f2f2"/>
    <ellipse id="Elipse_2" data-name="Elipse 2" cx="379.412" cy="28.061" rx="379.412" ry="28.061" transform="translate(200.478 775.173)" fill="#3f3d56"/>
    <ellipse id="Elipse_3" data-name="Elipse 3" cx="14.54" cy="7.058" rx="14.54" ry="7.058" transform="translate(395.737 225.901) rotate(-18.58)" fill="#3f3d56"/>
    <path id="Caminho_1" data-name="Caminho 1" d="M521.46,294.479l76.275-34.754S726.957,210.881,837.5,330.109c0,0-49.542-31.8-87.094,10.207,0,0-70.662-19.117-129.961,51.124,0,0-92.747,14.045-131.375,63.265,0,0-43.064-6.623-60.2,47.97a1.637,1.637,0,0,1-2.709.674h0a1.626,1.626,0,0,1-.46-.859C424.087,494.054,405.147,381.505,521.46,294.479Z" transform="translate(-139.165 -34.352)" fill="#6c63ff"/>
    <path id="Caminho_2" data-name="Caminho 2" d="M521.46,294.479l76.275-34.754S726.957,210.881,837.5,330.109c0,0-49.542-31.8-87.094,10.207,0,0-70.662-19.117-129.961,51.124,0,0-92.747,14.045-131.375,63.265,0,0-43.064-6.623-60.2,47.97a1.637,1.637,0,0,1-2.709.674h0a1.626,1.626,0,0,1-.46-.859C424.087,494.054,405.147,381.505,521.46,294.479Z" transform="translate(-139.165 -34.352)" opacity="0.2"/>
    <path id="Caminho_3" data-name="Caminho 3" d="M405.524,404.125l31.761,5.294,10.587-50.289-25.585-10.587Z" fill="#2f2e41"/>
    <circle id="Elipse_4" data-name="Elipse 4" cx="27.35" cy="27.35" r="27.35" transform="translate(421.846 339.279)" fill="#a0616a"/>
    <path id="Caminho_4" data-name="Caminho 4" d="M576.45,416.421s2.647,33.526-17.645,36.173,17.645,62.64,27.35,61.758,27.35-65.287,27.35-65.287-22.939-15.881-15-30Z" transform="translate(-139.165 -34.352)" fill="#a0616a"/>
    <path id="Caminho_5" data-name="Caminho 5" d="M542.483,538.614S546.012,564.2,556.6,564.2s-7.058-29.115-7.058-29.115Z" transform="translate(-139.165 -34.352)" fill="#a0616a"/>
    <path id="Caminho_6" data-name="Caminho 6" d="M696.878,564.2s26.468,22.056,22.939,29.115-26.468-7.94-28.232-25.586Z" transform="translate(-139.165 -34.352)" fill="#a0616a"/>
    <path id="Caminho_7" data-name="Caminho 7" d="M537.19,648.9l-16.763,62.64L501.9,787.41h17.645s6.176-23.821,17.645-36.173c0,0,11.469-19.41,11.469-32.643l27.35-64.4Z" transform="translate(-139.165 -34.352)" fill="#a0616a"/>
    <path id="Caminho_8" data-name="Caminho 8" d="M609.535,652.425l5.294,59.111s-.882,42.348,0,52.053,0,23.821,0,23.821h15.881s15-52.053,10.587-80.285l6.176-66.169Z" transform="translate(-139.165 -34.352)" fill="#a0616a"/>
    <path id="Caminho_9" data-name="Caminho 9" d="M588.36,490.09s-23.77-18.837-17.62-45.15c0,0-23.846,1.037-33.551,10.742s2.647,42.348,2.647,42.348,21.174,35.29,17.645,51.171-41.466,99.7-29.115,104.989,87.344,23.821,125.281-7.058c0,0,9.7-87.344-29.115-115.576V509.5s7.058-6.176,3.529-22.056c0,0,15-27.35,6.176-32.643s-29.089-13.051-29.089-13.051S606.888,481.267,588.36,490.09Z" transform="translate(-139.165 -34.352)" fill="#2f2e41"/>
    <path id="Caminho_10" data-name="Caminho 10" d="M542.483,455.682s-11.469-1.765-22.939,15-41.466,43.231-27.35,56.464S544.247,549.2,544.247,549.2l8.823-15.881-37.937-18.527,31.761-23.821Z" transform="translate(-139.165 -34.352)" fill="#2f2e41"/>
    <path id="Caminho_11" data-name="Caminho 11" d="M629.827,455.682s12.352,0,17.645,15,36.173,66.169,36.173,66.169L701.29,564.2l-12.352,14.116L654.53,539.5l-32.643-53.818Z" transform="translate(-139.165 -34.352)" fill="#2f2e41"/>
    <path id="Caminho_12" data-name="Caminho 12" d="M523.073,785.646h-24.7l-5.294,43.231s-14.116,22.939,7.058,20.292S514.25,822.7,514.25,822.7l5.294-8.823,1.765,18.527,1.765-.882V811.231S532.778,802.409,523.073,785.646Z" transform="translate(-139.165 -34.352)" fill="#2f2e41"/>
    <path id="Caminho_13" data-name="Caminho 13" d="M635.12,785.646l-22.939-1.765-4.411,49.406S605.123,851.815,621,849.168s10.587-17.645,10.587-17.645v-27.35Z" transform="translate(-139.165 -34.352)" fill="#2f2e41"/>
    <path id="Caminho_14" data-name="Caminho 14" d="M568.51,373.191S555.657,377.475,555,394.4a30.006,30.006,0,0,0,.892,8.034c.724,3.067,1.189,9.667-4.42,18.291A181.074,181.074,0,0,0,541.2,438.4l-.04.08,14.116,1.765,3-23.4A116.517,116.517,0,0,1,567.53,384l.1-.218s6.176,11.469,18.527,11.469l-4.411-4.411s19.41,7.94,26.468,7.94c0,0,5.294,3.529,0,8.823s-15.881,17.645-9.7,27.35.882,12.352.882,12.352l9.7-5.294,4.411-2.647v3.529l22.939-2.647s6.176-.882-7.058-15.881c0,0-3.495-5.824-1.966-10.848a25.34,25.34,0,0,0,.963-11.85C625.418,385.124,613.786,352.242,568.51,373.191Z" transform="translate(-139.165 -34.352)" fill="#2f2e41"/>
    <path id="Caminho_15" data-name="Caminho 15" d="M706.472,591.749c8.73-8.877-.939-27.263-1.695-28.661l-99.7-203.593a2.6,2.6,0,1,0-4.663,2.283l99.753,203.694.028.051c.1.182,9.726,18.466,1.152,23.7-9.234,5.646-20-3.5-20.109-3.593a2.6,2.6,0,1,0-3.394,3.928c.557.481,13.78,11.7,26.211,4.094A12.58,12.58,0,0,0,706.472,591.749Z" transform="translate(-139.165 -34.352)" fill="#3f3d56"/>
    <path id="Caminho_16" data-name="Caminho 16" d="M514.327,279.881l73.873-33.66s125.154-47.306,232.217,68.169c0,0-47.982-30.8-84.352,9.886,0,0-68.437-18.515-125.87,49.515,0,0-89.827,13.6-127.239,61.274,0,0-43.007-6.614-59.061,48.954l-2.221-2.184S397.221,367.5,514.327,279.881Z" transform="translate(-139.165 -34.352)" fill="#6c63ff"/>
    <path id="Caminho_17" data-name="Caminho 17" d="M514.692,279.671s-36.173,121.752-31.761,155.277" transform="translate(-139.165 -34.352)" fill="#3f3d56"/>
    <path id="Caminho_18" data-name="Caminho 18" d="M552.922,262.3s45.585,102.955,57.054,111.777" transform="translate(-139.165 -34.352)" fill="#3f3d56"/>
    <path id="Caminho_19" data-name="Caminho 19" d="M587.919,246.145s117.34,70.581,148.219,78.521" transform="translate(-139.165 -34.352)" fill="#3f3d56"/>
    <path id="Caminho_20" data-name="Caminho 20" d="M411.507,832.9c-.212-.346-5.212-8.695-6.945-26.03-1.59-15.9-.568-42.712,13.335-80.106,26.339-70.841-6.07-128-6.4-128.569l1.6-.928c.084.144,8.447,14.718,13.387,37.923a165.447,165.447,0,0,1-6.852,92.218c-26.293,70.721-6.746,104.2-6.545,104.529Z" transform="translate(-139.165 -34.352)" fill="#3f3d56"/>
    <circle id="Elipse_5" data-name="Elipse 5" cx="12.012" cy="12.012" r="12.012" transform="translate(250.031 535.657)" fill="#3f3d56"/>
    <circle id="Elipse_6" data-name="Elipse 6" cx="12.012" cy="12.012" r="12.012" transform="translate(287.914 580.008)" fill="#3f3d56"/>
    <circle id="Elipse_7" data-name="Elipse 7" cx="12.012" cy="12.012" r="12.012" transform="translate(262.043 609.575)" fill="#6c63ff"/>
    <circle id="Elipse_8" data-name="Elipse 8" cx="12.012" cy="12.012" r="12.012" transform="translate(293.457 634.522)" fill="#6c63ff"/>
    <circle id="Elipse_9" data-name="Elipse 9" cx="12.012" cy="12.012" r="12.012" transform="translate(252.803 673.328)" fill="#3f3d56"/>
    <path id="Caminho_21" data-name="Caminho 21" d="M418.763,833.341s-12.012-29.567,24.023-51.742Z" transform="translate(-139.165 -34.352)" fill="#3f3d56"/>
    <path id="Caminho_22" data-name="Caminho 22" d="M403.991,832.8s-5.467-31.442-47.777-31.172Z" transform="translate(-139.165 -34.352)" fill="#3f3d56"/>
    <path id="Caminho_23" data-name="Caminho 23" d="M422.578,832.9c.212-.346,5.212-8.695,6.945-26.03,1.59-15.9.568-42.712-13.335-80.106-26.339-70.841,6.07-128,6.4-128.569l-1.6-.928c-.084.144-8.447,14.718-13.387,37.923a165.447,165.447,0,0,0,6.852,92.218c26.293,70.721,6.746,104.2,6.545,104.529Z" transform="translate(302.872 -30.352)" fill="#3f3d56"/>
    <circle id="Elipse_10" data-name="Elipse 10" cx="12.012" cy="12.012" r="12.012" transform="translate(723.181 539.657)" fill="#3f3d56"/>
    <circle id="Elipse_11" data-name="Elipse 11" cx="12.012" cy="12.012" r="12.012" transform="translate(686.796 584.008)" fill="#3f3d56"/>
    <circle id="Elipse_12" data-name="Elipse 12" cx="12.012" cy="12.012" r="12.012" transform="translate(681.253 638.522)" fill="#6c63ff"/>
    <circle id="Elipse_13" data-name="Elipse 13" cx="12.012" cy="12.012" r="12.012" transform="translate(720.505 677.328)" fill="#3f3d56"/>
    <path id="Caminho_24" data-name="Caminho 24" d="M440.864,833.341s12.012-29.567-24.023-51.742Z" transform="translate(278.271 -30.352)" fill="#3f3d56"/>
    <path id="Caminho_25" data-name="Caminho 25" d="M356.214,832.8s5.467-31.442,47.777-31.172Z" transform="translate(375.058 -30.352)" fill="#3f3d56"/>
  </g>
</svg>
